<svg width="96" height="72" viewBox="0 0 96 72" fill="none" xmlns="http://www.w3.org/2000/svg">
<g clip-path="url(#clip0_1062_1938)">
<mask id="mask0_1062_1938" style="mask-type:alpha" maskUnits="userSpaceOnUse" x="0" y="0" width="96" height="72">
<rect width="95.9062" height="71.9297" rx="6" fill="white"/>
</mask>
<g mask="url(#mask0_1062_1938)">
<path fill-rule="evenodd" clip-rule="evenodd" d="M0 0V71.9297H95.9062V0H0Z" fill="#2E42A5"/>
<mask id="mask1_1062_1938" style="mask-type:alpha" maskUnits="userSpaceOnUse" x="0" y="0" width="96" height="72">
<path fill-rule="evenodd" clip-rule="evenodd" d="M0 0V71.9297H95.9062V0H0Z" fill="white"/>
</mask>
<g mask="url(#mask1_1062_1938)">
<rect width="53.9473" height="41.959" fill="#2B409A"/>
<mask id="mask2_1062_1938" style="mask-type:alpha" maskUnits="userSpaceOnUse" x="0" y="0" width="54" height="42">
<rect width="53.9473" height="41.959" fill="white"/>
</mask>
<g mask="url(#mask2_1062_1938)">
<path d="M-6.00684 38.9614L5.86441 44.1679L54.2167 5.66075L60.4785 -2.07629L47.784 -3.81646L28.0622 12.7774L12.1882 23.9578L-6.00684 38.9614Z" fill="#F7FCFF"/>
<path d="M-4.38159 42.6092L1.66626 45.6306L58.23 -2.79519H49.7381L-4.38159 42.6092Z" fill="#F50100"/>
<path d="M59.9543 38.9614L48.0831 44.1679L-0.269225 5.66075L-6.53104 -2.07629L6.16356 -3.81646L25.8853 12.7774L41.7593 23.9578L59.9543 38.9614Z" fill="#F7FCFF"/>
<path d="M59.5491 41.5794L53.5012 44.6008L29.4158 23.8672L22.275 21.5507L-7.13378 -2.04982H1.35811L30.7503 20.9905L38.5576 23.7683L59.5491 41.5794Z" fill="#F50100"/>
<mask id="path-12-outside-1_1062_1938" maskUnits="userSpaceOnUse" x="-5.00024" y="-4.99997" width="64" height="52" fill="black">
<rect fill="white" x="-5.00024" y="-4.99997" width="64" height="52"/>
<path fill-rule="evenodd" clip-rule="evenodd" d="M29.9244 3.05176e-05H23.9302V17.9825H-0.000244141V23.9766H23.9302V41.959H29.9244V23.9766H53.947V17.9825H29.9244V3.05176e-05Z"/>
</mask>
<path fill-rule="evenodd" clip-rule="evenodd" d="M29.9244 3.05176e-05H23.9302V17.9825H-0.000244141V23.9766H23.9302V41.959H29.9244V23.9766H53.947V17.9825H29.9244V3.05176e-05Z" fill="#F50100"/>
<path d="M23.9302 3.05176e-05V-4.49557H19.4346V3.05176e-05H23.9302ZM29.9244 3.05176e-05H34.42V-4.49557H29.9244V3.05176e-05ZM23.9302 17.9825V22.4781H28.4258V17.9825H23.9302ZM-0.000244141 17.9825V13.4868H-4.49585V17.9825H-0.000244141ZM-0.000244141 23.9766H-4.49585V28.4722H-0.000244141V23.9766ZM23.9302 23.9766H28.4258V19.481H23.9302V23.9766ZM23.9302 41.959H19.4346V46.4546H23.9302V41.959ZM29.9244 41.959V46.4546H34.42V41.959H29.9244ZM29.9244 23.9766V19.481H25.4288V23.9766H29.9244ZM53.947 23.9766V28.4722H58.4426V23.9766H53.947ZM53.947 17.9825H58.4426V13.4868H53.947V17.9825ZM29.9244 17.9825H25.4288V22.4781H29.9244V17.9825ZM23.9302 4.49564H29.9244V-4.49557H23.9302V4.49564ZM28.4258 17.9825V3.05176e-05H19.4346V17.9825H28.4258ZM-0.000244141 22.4781H23.9302V13.4868H-0.000244141V22.4781ZM4.49536 23.9766V17.9825H-4.49585V23.9766H4.49536ZM23.9302 19.481H-0.000244141V28.4722H23.9302V19.481ZM28.4258 41.959V23.9766H19.4346V41.959H28.4258ZM29.9244 37.4634H23.9302V46.4546H29.9244V37.4634ZM25.4288 23.9766V41.959H34.42V23.9766H25.4288ZM53.947 19.481H29.9244V28.4722H53.947V19.481ZM49.4514 17.9825V23.9766H58.4426V17.9825H49.4514ZM29.9244 22.4781H53.947V13.4868H29.9244V22.4781ZM25.4288 3.05176e-05V17.9825H34.42V3.05176e-05H25.4288Z" fill="#F7FCFF" mask="url(#path-12-outside-1_1062_1938)"/>
</g>
</g>
<g clip-path="url(#clip1_1062_1938)">
<path d="M26.9736 61.4399L23.0725 65.0451L23.4588 59.7473L18.2079 58.9451L22.5907 55.944L19.944 51.3384L25.0231 52.8939L26.9736 47.9531L28.9242 52.8939L34.0032 51.3384L31.3565 55.944L35.7394 58.9451L30.4884 59.7473L30.8748 65.0451L26.9736 61.4399Z" fill="#F7FCFF"/>
<path d="M65.9355 38.9619L63.3348 41.3654L63.5923 37.8335L60.0917 37.2987L63.0136 35.2979L61.2491 32.2276L64.6352 33.2646L65.9355 29.9707L67.2359 33.2646L70.622 32.2276L68.8575 35.2979L71.7794 37.2987L68.2788 37.8335L68.5363 41.3654L65.9355 38.9619Z" fill="#F7FCFF"/>
<path d="M71.9297 14.9854L69.3289 17.3888L69.5865 13.8569L66.0858 13.3221L69.0078 11.3214L67.2433 8.251L70.6293 9.28801L71.9297 5.99414L73.2301 9.28801L76.6161 8.251L74.8516 11.3214L77.7735 13.3221L74.2729 13.8569L74.5304 17.3888L71.9297 14.9854Z" fill="#F7FCFF"/>
<path d="M86.915 26.9736L84.3143 29.3771L84.5718 25.8452L81.0712 25.3104L83.9931 23.3097L82.2286 20.2393L85.6147 21.2763L86.915 17.9824L88.2154 21.2763L91.6014 20.2393L89.837 23.3097L92.7589 25.3104L89.2582 25.8452L89.5158 29.3771L86.915 26.9736Z" fill="#F7FCFF"/>
<path d="M74.9268 65.9355L72.326 68.339L72.5836 64.8071L69.0829 64.2723L72.0048 62.2716L70.2403 59.2012L73.6264 60.2382L74.9268 56.9443L76.2271 60.2382L79.6132 59.2012L77.8487 62.2716L80.7706 64.2723L77.27 64.8071L77.5275 68.339L74.9268 65.9355Z" fill="#F7FCFF"/>
<path d="M85.4165 42.7083L82.7741 44.0975L83.2787 41.1551L81.1409 39.0712L84.0953 38.6419L85.4165 35.9648L86.7377 38.6419L89.6921 39.0712L87.5543 41.1551L88.059 44.0975L85.4165 42.7083Z" fill="#F7FCFF"/>
</g>
</g>
<rect width="95.9062" height="71.9297" fill="url(#paint0_linear_1062_1938)" style="mix-blend-mode:overlay"/>
</g>
<rect x="1.49854" y="1.49854" width="93.0029" height="69.0029" rx="4.50146" stroke="black" stroke-opacity="0.1" stroke-width="2.99707" style="mix-blend-mode:multiply"/>
<defs>
<linearGradient id="paint0_linear_1062_1938" x1="47.9531" y1="0" x2="47.9531" y2="71.9297" gradientUnits="userSpaceOnUse">
<stop stop-color="white" stop-opacity="0.7"/>
<stop offset="1" stop-opacity="0.3"/>
</linearGradient>
<clipPath id="clip0_1062_1938">
<rect width="96" height="72" rx="6" fill="white"/>
</clipPath>
<clipPath id="clip1_1062_1938">
<rect width="74.9268" height="62.9385" fill="white" transform="translate(17.9824 5.99414)"/>
</clipPath>
</defs>
</svg>
