<svg width="96" height="72" viewBox="0 0 96 72" fill="none" xmlns="http://www.w3.org/2000/svg">
<g clip-path="url(#clip0_1062_1938)">
<mask id="mask0_1062_1938" style="mask-type:alpha" maskUnits="userSpaceOnUse" x="0" y="0" width="96" height="72">
<rect width="95.9062" height="71.9297" fill="white"/>
</mask>
<g mask="url(#mask0_1062_1938)">
<path fill-rule="evenodd" clip-rule="evenodd" d="M65.9355 0H95.9062V71.9297H65.9355V0Z" fill="#D9071E"/>
<path fill-rule="evenodd" clip-rule="evenodd" d="M0 0H35.9648V71.9297H0V0Z" fill="#006923"/>
<path fill-rule="evenodd" clip-rule="evenodd" d="M29.9707 0H65.9355V71.9297H29.9707V0Z" fill="white"/>
<path fill-rule="evenodd" clip-rule="evenodd" d="M39.1283 25.001C38.8098 26.3651 39.0172 26.6871 40.5573 26.6871C40.6373 26.6871 40.7642 26.9132 40.9023 27.1591C41.0537 27.4289 41.2186 27.7226 41.3497 27.768C41.2935 27.8424 40.708 28.9008 40.7052 30.765C40.7046 31.1489 40.8832 31.7815 41.0547 32.3892C41.2413 33.0501 41.4195 33.6814 41.3497 33.9309C41.2362 34.337 40.727 33.8944 40.3325 33.5515C40.1069 33.3554 39.9188 33.1918 39.8636 33.2383C39.5818 33.4753 39.4364 31.5987 39.3486 30.4648C39.3094 29.96 39.2817 29.6023 39.2585 29.6441C39.1601 29.4273 39.12 29.1609 39.0803 28.8976C38.994 28.3253 38.91 27.768 38.2346 27.768H36.4961V29.048C36.4961 29.048 37.502 29.048 37.502 31.4294C37.5186 31.7853 37.9881 34.9167 39.1283 34.9328C38.4601 34.9479 38.4651 35.0813 38.4681 35.1593C38.4682 35.1642 38.4684 35.1689 38.4684 35.1733C38.4684 37.0889 40.0693 37.296 41.5657 36.7553C42.465 36.4303 43.4197 35.7958 44.1347 35.0137C45.1435 33.9101 45.2681 32.481 43.9434 31.6975C43.4718 31.4185 42.9601 31.3108 42.2443 31.2709C42.3859 30.851 42.2519 30.4758 42.1474 30.1831C42.06 29.9384 41.9932 29.7514 42.1254 29.6441C43.6256 28.4272 43.7595 27.3057 42.6678 26.2996C42.5261 26.1691 42.3891 25.9922 42.248 25.81C41.982 25.4667 41.7017 25.1049 41.3497 25.001C41.5124 24.6727 41.7316 24.275 42.0067 23.8169L39.4372 22.2741C38.9714 23.0499 39.0493 23.6567 39.1172 24.1856C39.1544 24.4758 39.1886 24.7426 39.1283 25.001ZM41.9222 32.9916C41.9069 33.0083 41.8914 33.0249 41.8756 33.0415L41.9072 33.0128C41.9121 33.0043 41.9171 32.9971 41.9222 32.9916ZM40.5625 33.9309C40.5619 33.9311 40.5636 33.9308 40.5669 33.93L40.5625 33.9309ZM39.128 34.9328C39.1376 34.9326 39.1474 34.9324 39.1573 34.9322L39.128 34.9328ZM39.1573 34.9322C39.1894 34.9317 39.223 34.9314 39.2582 34.9314L39.2126 34.9311L39.1573 34.9322Z" fill="#A8AC71"/>
<path fill-rule="evenodd" clip-rule="evenodd" d="M43.1098 23.717C43.1098 23.717 41.0514 25.3134 41.4364 27.0154C41.8213 28.7173 45.8779 27.0154 45.3875 25.3662C44.8971 23.717 43.1098 23.717 43.1098 23.717Z" fill="#FCCA3D"/>
<path fill-rule="evenodd" clip-rule="evenodd" d="M57.7425 37.1723C57.7425 37.1723 60.5147 28.9563 56.1079 24.7034C51.7011 20.4504 46.6088 20.735 46.6088 20.735C46.6088 20.735 45.1423 21.8246 46.6088 22.6555C48.0752 23.4865 47.4608 24.2832 47.4608 24.2832C47.4608 24.2832 45.0049 21.7896 43.3746 23.2465C41.7442 24.7034 44.8965 24.4816 44.5628 25.5786C44.2291 26.6756 42.8154 31.546 44.8811 34.005C46.9469 36.4639 42.928 35.9303 43.7454 35.9303C44.5628 35.9303 47.4608 36.5026 47.4608 35.9303C47.4608 35.3579 48.4683 38.1555 49.3305 38.1555C50.1928 38.1555 50.8583 37.1723 50.8583 37.1723C50.8583 37.1723 52.0669 38.1555 52.8034 38.1555C53.5398 38.1555 56.1079 37.5121 56.1079 37.5121L51.2542 33.4225C51.2542 33.4225 51.5468 31.6187 50.8583 31.2283C50.1697 30.8379 56.3782 34.6882 56.8644 35.9303C57.3506 37.1723 57.7425 37.1723 57.7425 37.1723Z" fill="#8F4620"/>
<path d="M33.1667 35.1454C33.1667 35.1454 33.6168 33.7111 34.0985 33.6116C34.516 33.5253 35.3937 34.2989 35.3937 34.2989C36.9529 42.96 40.723 46.3429 46.9786 46.3429C53.3079 46.3429 57.1439 43.7724 59.3825 35.7844C59.3825 35.7844 60.5724 34.5691 60.9924 34.7042C61.4495 34.8512 62.0223 36.4591 62.0223 36.4591C59.4542 45.623 54.6021 49.7031 46.9786 49.7031C39.2815 49.7031 34.957 45.0903 33.1667 35.1454Z" fill="#9FAB2F"/>
<path fill-rule="evenodd" clip-rule="evenodd" d="M39.9634 40.9293C39.9634 40.9293 48.9676 42.8395 52.5217 42.8395C56.0757 42.8395 49.4033 45.74 46.7999 45.74C45.661 45.74 44.2883 45.0496 42.6818 43.6688C42.3939 43.4214 42.6727 42.8676 41.7956 42.8601C40.5725 42.8495 39.053 42.5626 39.1984 42.3877C39.3367 42.2214 41.1162 42.1713 40.9447 41.9895C40.6617 41.6896 39.9634 40.9293 39.9634 40.9293Z" fill="#2FC2DC"/>
<rect x="43.9565" y="42.2587" width="5.99414" height="3.21115" rx="0.499512" fill="#F9AA51"/>
<path d="M36.491 36.3721C36.491 36.3721 36.491 35.248 37.2522 34.6508C38.1248 33.9662 38.9444 34.6508 38.9444 34.6508C42.1376 39.2023 46.9129 40.6996 53.5916 39.1368C53.5916 39.1368 55.5885 39.7894 55.6888 40.2181C55.8161 40.7621 54.2745 42.055 54.2745 42.055C46.467 43.8819 40.4321 41.9896 36.491 36.3721Z" fill="#259485"/>
<path fill-rule="evenodd" clip-rule="evenodd" d="M49.7249 37.0146C49.7249 37.0146 46.0875 38.9293 47.2999 38.9293C48.5124 38.9293 53.2577 39.8867 52.3343 38.9293C51.411 37.9719 49.7249 37.0146 49.7249 37.0146Z" fill="#FCCA3D"/>
<path fill-rule="evenodd" clip-rule="evenodd" d="M45.4244 34.7307C45.4244 34.7307 44.7332 32.7345 43.295 32.7345C41.8567 32.7345 42.2627 34.3721 41.571 34.3721C40.8794 34.3721 42.2155 35.5244 42.811 35.5244C43.4065 35.5244 45.4244 34.7307 45.4244 34.7307Z" fill="#FCCA3D"/>
</g>
<rect width="95.9062" height="71.9297" fill="url(#paint0_linear_1062_1938)" style="mix-blend-mode:overlay"/>
</g>
<rect x="1.49854" y="1.49854" width="93.0029" height="69.0029" rx="4.50146" stroke="black" stroke-opacity="0.1" stroke-width="2.99707" style="mix-blend-mode:multiply"/>
<defs>
<linearGradient id="paint0_linear_1062_1938" x1="47.9531" y1="0" x2="47.9531" y2="71.9297" gradientUnits="userSpaceOnUse">
<stop stop-color="white" stop-opacity="0.7"/>
<stop offset="1" stop-opacity="0.3"/>
</linearGradient>
<clipPath id="clip0_1062_1938">
<rect width="96" height="72" rx="6" fill="white"/>
</clipPath>
</defs>
</svg>
