<svg width="96" height="72" viewBox="0 0 96 72" fill="none" xmlns="http://www.w3.org/2000/svg">
<g clip-path="url(#clip0_1062_1938)">
<mask id="mask0_1062_1938" style="mask-type:alpha" maskUnits="userSpaceOnUse" x="0" y="0" width="96" height="72">
<rect width="95.9062" height="71.9297" fill="white"/>
</mask>
<g mask="url(#mask0_1062_1938)">
<path fill-rule="evenodd" clip-rule="evenodd" d="M0 0V71.9297H95.9062V0H0Z" fill="#2E42A5"/>
<mask id="mask1_1062_1938" style="mask-type:alpha" maskUnits="userSpaceOnUse" x="0" y="0" width="96" height="72">
<path fill-rule="evenodd" clip-rule="evenodd" d="M0 0V71.9297H95.9062V0H0Z" fill="white"/>
</mask>
<g mask="url(#mask1_1062_1938)">
<rect width="53.9473" height="41.959" fill="#2B409A"/>
<mask id="mask2_1062_1938" style="mask-type:alpha" maskUnits="userSpaceOnUse" x="0" y="0" width="54" height="42">
<rect width="53.9473" height="41.959" fill="white"/>
</mask>
<g mask="url(#mask2_1062_1938)">
<path d="M-6.00684 38.9614L5.86441 44.1679L54.2167 5.66075L60.4785 -2.07629L47.784 -3.81646L28.0622 12.7774L12.1882 23.9578L-6.00684 38.9614Z" fill="#F7FCFF"/>
<path d="M-4.38159 42.6092L1.66626 45.6306L58.23 -2.79519H49.7381L-4.38159 42.6092Z" fill="#F50100"/>
<path d="M59.9543 38.9614L48.0831 44.1679L-0.269225 5.66075L-6.53104 -2.07629L6.16356 -3.81646L25.8853 12.7774L41.7593 23.9578L59.9543 38.9614Z" fill="#F7FCFF"/>
<path d="M59.5491 41.5794L53.5012 44.6008L29.4158 23.8672L22.275 21.5507L-7.13378 -2.04982H1.35811L30.7503 20.9905L38.5576 23.7683L59.5491 41.5794Z" fill="#F50100"/>
<mask id="path-12-outside-1_1062_1938" maskUnits="userSpaceOnUse" x="-5.00024" y="-4.99997" width="64" height="52" fill="black">
<rect fill="white" x="-5.00024" y="-4.99997" width="64" height="52"/>
<path fill-rule="evenodd" clip-rule="evenodd" d="M29.9244 3.05176e-05H23.9302V17.9825H-0.000244141V23.9766H23.9302V41.959H29.9244V23.9766H53.947V17.9825H29.9244V3.05176e-05Z"/>
</mask>
<path fill-rule="evenodd" clip-rule="evenodd" d="M29.9244 3.05176e-05H23.9302V17.9825H-0.000244141V23.9766H23.9302V41.959H29.9244V23.9766H53.947V17.9825H29.9244V3.05176e-05Z" fill="#F50100"/>
<path d="M23.9302 3.05176e-05V-4.49557H19.4346V3.05176e-05H23.9302ZM29.9244 3.05176e-05H34.42V-4.49557H29.9244V3.05176e-05ZM23.9302 17.9825V22.4781H28.4258V17.9825H23.9302ZM-0.000244141 17.9825V13.4868H-4.49585V17.9825H-0.000244141ZM-0.000244141 23.9766H-4.49585V28.4722H-0.000244141V23.9766ZM23.9302 23.9766H28.4258V19.481H23.9302V23.9766ZM23.9302 41.959H19.4346V46.4546H23.9302V41.959ZM29.9244 41.959V46.4546H34.42V41.959H29.9244ZM29.9244 23.9766V19.481H25.4288V23.9766H29.9244ZM53.947 23.9766V28.4722H58.4426V23.9766H53.947ZM53.947 17.9825H58.4426V13.4868H53.947V17.9825ZM29.9244 17.9825H25.4288V22.4781H29.9244V17.9825ZM23.9302 4.49564H29.9244V-4.49557H23.9302V4.49564ZM28.4258 17.9825V3.05176e-05H19.4346V17.9825H28.4258ZM-0.000244141 22.4781H23.9302V13.4868H-0.000244141V22.4781ZM4.49536 23.9766V17.9825H-4.49585V23.9766H4.49536ZM23.9302 19.481H-0.000244141V28.4722H23.9302V19.481ZM28.4258 41.959V23.9766H19.4346V41.959H28.4258ZM29.9244 37.4634H23.9302V46.4546H29.9244V37.4634ZM25.4288 23.9766V41.959H34.42V23.9766H25.4288ZM53.947 19.481H29.9244V28.4722H53.947V19.481ZM49.4514 17.9825V23.9766H58.4426V17.9825H49.4514ZM29.9244 22.4781H53.947V13.4868H29.9244V22.4781ZM25.4288 3.05176e-05V17.9825H34.42V3.05176e-05H25.4288Z" fill="#F7FCFF" mask="url(#path-12-outside-1_1062_1938)"/>
</g>
<path fill-rule="evenodd" clip-rule="evenodd" d="M72.2294 22.39L71.4511 26.9276L75.5262 24.7852L79.6012 26.9276L78.823 22.39L82.1197 19.1764L77.5637 18.5144L75.5262 14.3859L73.4887 18.5144L68.9326 19.1764L72.2294 22.39ZM60.2411 39.1736L59.4628 43.7112L63.5379 41.5688L67.6129 43.7112L66.8347 39.1736L70.1314 35.96L65.5754 35.298L63.5379 31.1695L61.5004 35.298L56.9443 35.96L60.2411 39.1736ZM69.2023 64.2184L74.4872 61.4399L79.7721 64.2184L78.7628 58.3335L83.0383 54.1659L77.1296 53.3073L74.4872 47.9531L71.8447 53.3073L65.936 54.1659L70.2116 58.3335L69.2023 64.2184ZM80.4399 43.6973L81.2173 39.1647L77.9242 35.9547L82.4752 35.2934L84.5104 31.1695L86.5457 35.2934L91.0966 35.9547L87.8035 39.1647L88.5809 43.6973L84.5104 41.5573L80.4399 43.6973Z" fill="#F50100"/>
<path d="M71.4511 26.9276L70.8603 26.8263L70.655 28.0233L71.7301 27.4581L71.4511 26.9276ZM72.2294 22.39L72.8202 22.4913L72.8735 22.1807L72.6478 21.9607L72.2294 22.39ZM75.5262 24.7852L75.8051 24.2546L75.5262 24.108L75.2472 24.2546L75.5262 24.7852ZM79.6012 26.9276L79.3223 27.4581L80.3973 28.0233L80.192 26.8263L79.6012 26.9276ZM78.823 22.39L78.4046 21.9607L78.1789 22.1807L78.2322 22.4913L78.823 22.39ZM82.1197 19.1764L82.5381 19.6056L83.4078 18.7579L82.2059 18.5832L82.1197 19.1764ZM77.5637 18.5144L77.0262 18.7796L77.1656 19.0622L77.4775 19.1075L77.5637 18.5144ZM75.5262 14.3859L76.0637 14.1206L75.5262 13.0315L74.9887 14.1206L75.5262 14.3859ZM73.4887 18.5144L73.5748 19.1075L73.8867 19.0622L74.0262 18.7796L73.4887 18.5144ZM68.9326 19.1764L68.8464 18.5832L67.6445 18.7579L68.5142 19.6056L68.9326 19.1764ZM59.4628 43.7112L58.8721 43.6099L58.6667 44.8069L59.7418 44.2418L59.4628 43.7112ZM60.2411 39.1736L60.8319 39.2749L60.8852 38.9643L60.6595 38.7443L60.2411 39.1736ZM63.5379 41.5688L63.8168 41.0383L63.5379 40.8916L63.259 41.0383L63.5379 41.5688ZM67.6129 43.7112L67.334 44.2418L68.409 44.8069L68.2037 43.6099L67.6129 43.7112ZM66.8347 39.1736L66.4163 38.7443L66.1906 38.9643L66.2439 39.2749L66.8347 39.1736ZM70.1314 35.96L70.5498 36.3892L71.4196 35.5415L70.2176 35.3668L70.1314 35.96ZM65.5754 35.298L65.0379 35.5633L65.1774 35.8458L65.4892 35.8912L65.5754 35.298ZM63.5379 31.1695L64.0754 30.9042L63.5379 29.8151L63.0004 30.9042L63.5379 31.1695ZM61.5004 35.298L61.5866 35.8912L61.8984 35.8458L62.0379 35.5633L61.5004 35.298ZM56.9443 35.96L56.8581 35.3668L55.6562 35.5415L56.5259 36.3892L56.9443 35.96ZM74.4872 61.4399L74.7661 60.9094L74.4872 60.7627L74.2083 60.9094L74.4872 61.4399ZM69.2023 64.2184L68.6115 64.117L68.4062 65.3141L69.4812 64.7489L69.2023 64.2184ZM79.7721 64.2184L79.4932 64.7489L80.5682 65.3141L80.3629 64.117L79.7721 64.2184ZM78.7628 58.3335L78.3444 57.9043L78.1187 58.1243L78.172 58.4349L78.7628 58.3335ZM83.0383 54.1659L83.4567 54.5951L84.3265 53.7474L83.1245 53.5727L83.0383 54.1659ZM77.1296 53.3073L76.5921 53.5726L76.7316 53.8552L77.0435 53.9005L77.1296 53.3073ZM74.4872 47.9531L75.0247 47.6878L74.4872 46.5987L73.9497 47.6878L74.4872 47.9531ZM71.8447 53.3073L71.9309 53.9005L72.2428 53.8552L72.3823 53.5726L71.8447 53.3073ZM65.936 54.1659L65.8499 53.5727L64.6479 53.7474L65.5176 54.5951L65.936 54.1659ZM70.2116 58.3335L70.8024 58.4349L70.8557 58.1243L70.63 57.9043L70.2116 58.3335ZM81.2173 39.1647L81.8081 39.266L81.8614 38.9554L81.6357 38.7354L81.2173 39.1647ZM80.4399 43.6973L79.8491 43.5959L79.6438 44.793L80.7188 44.2278L80.4399 43.6973ZM77.9242 35.9547L77.838 35.3615L76.6361 35.5361L77.5058 36.3839L77.9242 35.9547ZM82.4752 35.2934L82.5614 35.8866L82.8732 35.8413L83.0127 35.5587L82.4752 35.2934ZM84.5104 31.1695L85.0479 30.9042L84.5104 29.8151L83.9729 30.9042L84.5104 31.1695ZM86.5457 35.2934L86.0082 35.5587L86.1476 35.8413L86.4595 35.8866L86.5457 35.2934ZM91.0966 35.9547L91.515 36.3839L92.3848 35.5361L91.1828 35.3615L91.0966 35.9547ZM87.8035 39.1647L87.3851 38.7354L87.1595 38.9554L87.2127 39.266L87.8035 39.1647ZM88.5809 43.6973L88.302 44.2278L89.377 44.793L89.1717 43.5959L88.5809 43.6973ZM84.5104 41.5573L84.7893 41.0267L84.5104 40.8801L84.2315 41.0267L84.5104 41.5573ZM72.0419 27.0289L72.8202 22.4913L71.6386 22.2886L70.8603 26.8263L72.0419 27.0289ZM75.2472 24.2546L71.1722 26.397L71.7301 27.4581L75.8051 25.3158L75.2472 24.2546ZM79.8801 26.397L75.8051 24.2546L75.2472 25.3158L79.3223 27.4581L79.8801 26.397ZM78.2322 22.4913L79.0104 27.0289L80.192 26.8263L79.4137 22.2886L78.2322 22.4913ZM81.7013 18.7472L78.4046 21.9607L79.2413 22.8192L82.5381 19.6056L81.7013 18.7472ZM77.4775 19.1075L82.0335 19.7696L82.2059 18.5832L77.6499 17.9212L77.4775 19.1075ZM74.9887 14.6512L77.0262 18.7796L78.1012 18.2491L76.0637 14.1206L74.9887 14.6512ZM74.0262 18.7796L76.0637 14.6512L74.9887 14.1206L72.9511 18.2491L74.0262 18.7796ZM69.0188 19.7696L73.5748 19.1075L73.4025 17.9212L68.8464 18.5832L69.0188 19.7696ZM72.6478 21.9607L69.351 18.7472L68.5142 19.6056L71.811 22.8192L72.6478 21.9607ZM60.0536 43.8125L60.8319 39.2749L59.6503 39.0722L58.8721 43.6099L60.0536 43.8125ZM63.259 41.0383L59.1839 43.1806L59.7418 44.2418L63.8168 42.0994L63.259 41.0383ZM67.8919 43.1806L63.8168 41.0383L63.259 42.0994L67.334 44.2418L67.8919 43.1806ZM66.2439 39.2749L67.0221 43.8125L68.2037 43.6099L67.4255 39.0722L66.2439 39.2749ZM69.713 35.5308L66.4163 38.7443L67.2531 39.6028L70.5498 36.3892L69.713 35.5308ZM65.4892 35.8912L70.0453 36.5532L70.2176 35.3668L65.6616 34.7048L65.4892 35.8912ZM63.0004 31.4348L65.0379 35.5633L66.1129 35.0327L64.0754 30.9042L63.0004 31.4348ZM62.0379 35.5633L64.0754 31.4348L63.0004 30.9042L60.9629 35.0327L62.0379 35.5633ZM57.0305 36.5532L61.5866 35.8912L61.4142 34.7048L56.8581 35.3668L57.0305 36.5532ZM60.6595 38.7443L57.3627 35.5308L56.5259 36.3892L59.8227 39.6028L60.6595 38.7443ZM74.2083 60.9094L68.9234 63.6878L69.4812 64.7489L74.7661 61.9705L74.2083 60.9094ZM80.051 63.6878L74.7661 60.9094L74.2083 61.9705L79.4932 64.7489L80.051 63.6878ZM78.172 58.4349L79.1813 64.3197L80.3629 64.117L79.3536 58.2322L78.172 58.4349ZM82.6199 53.7367L78.3444 57.9043L79.1812 58.7628L83.4567 54.5951L82.6199 53.7367ZM77.0435 53.9005L82.9522 54.7591L83.1245 53.5727L77.2158 52.7141L77.0435 53.9005ZM73.9497 48.2184L76.5921 53.5726L77.6672 53.042L75.0247 47.6878L73.9497 48.2184ZM72.3823 53.5726L75.0247 48.2184L73.9497 47.6878L71.3072 53.042L72.3823 53.5726ZM66.0222 54.7591L71.9309 53.9005L71.7586 52.7141L65.8499 53.5727L66.0222 54.7591ZM70.63 57.9043L66.3544 53.7367L65.5176 54.5951L69.7932 58.7628L70.63 57.9043ZM69.7931 64.3197L70.8024 58.4349L69.6208 58.2322L68.6115 64.117L69.7931 64.3197ZM80.6265 39.0633L79.8491 43.5959L81.0307 43.7986L81.8081 39.266L80.6265 39.0633ZM77.5058 36.3839L80.7989 39.5939L81.6357 38.7354L78.3426 35.5255L77.5058 36.3839ZM82.389 34.7002L77.838 35.3615L78.0104 36.5479L82.5614 35.8866L82.389 34.7002ZM83.9729 30.9042L81.9376 35.0281L83.0127 35.5587L85.0479 31.4348L83.9729 30.9042ZM87.0832 35.0281L85.0479 30.9042L83.9729 31.4348L86.0082 35.5587L87.0832 35.0281ZM91.1828 35.3615L86.6319 34.7002L86.4595 35.8866L91.0104 36.5479L91.1828 35.3615ZM88.2219 39.5939L91.515 36.3839L90.6782 35.5255L87.3851 38.7354L88.2219 39.5939ZM89.1717 43.5959L88.3943 39.0633L87.2127 39.266L87.9901 43.7986L89.1717 43.5959ZM84.2315 42.0878L88.302 44.2278L88.8599 43.1667L84.7893 41.0267L84.2315 42.0878ZM80.7188 44.2278L84.7893 42.0878L84.2315 41.0267L80.161 43.1667L80.7188 44.2278Z" fill="#F7FCFF"/>
</g>
</g>
<rect width="95.9062" height="71.9297" fill="url(#paint0_linear_1062_1938)" style="mix-blend-mode:overlay"/>
</g>
<rect x="1.49854" y="1.49854" width="93.0029" height="69.0029" rx="4.50146" stroke="black" stroke-opacity="0.1" stroke-width="2.99707" style="mix-blend-mode:multiply"/>
<defs>
<linearGradient id="paint0_linear_1062_1938" x1="47.9531" y1="0" x2="47.9531" y2="71.9297" gradientUnits="userSpaceOnUse">
<stop stop-color="white" stop-opacity="0.7"/>
<stop offset="1" stop-opacity="0.3"/>
</linearGradient>
<clipPath id="clip0_1062_1938">
<rect width="96" height="72" rx="6" fill="white"/>
</clipPath>
</defs>
</svg>
