<svg width="96" height="72" viewBox="0 0 96 72" fill="none" xmlns="http://www.w3.org/2000/svg">
<g clip-path="url(#clip0_1062_1938)">
<mask id="mask0_1062_1938" style="mask-type:alpha" maskUnits="userSpaceOnUse" x="0" y="0" width="96" height="72">
<rect width="95.9062" height="71.9297" fill="white"/>
</mask>
<g mask="url(#mask0_1062_1938)">
<path fill-rule="evenodd" clip-rule="evenodd" d="M0 0H95.9062V71.9297H0V0Z" fill="#F7FCFF"/>
<path fill-rule="evenodd" clip-rule="evenodd" d="M0 43.957V49.9511H95.9062V43.957H0Z" fill="#E31D1C"/>
<path fill-rule="evenodd" clip-rule="evenodd" d="M0 54.9463V60.9405H95.9062V54.9463H0Z" fill="#E31D1C"/>
<path fill-rule="evenodd" clip-rule="evenodd" d="M0 21.9785V27.9727H95.9062V21.9785H0Z" fill="#E31D1C"/>
<path fill-rule="evenodd" clip-rule="evenodd" d="M0 65.9355V71.9297H95.9062V65.9355H0Z" fill="#E31D1C"/>
<path fill-rule="evenodd" clip-rule="evenodd" d="M0 32.9678V38.9619H95.9062V32.9678H0Z" fill="#E31D1C"/>
<path fill-rule="evenodd" clip-rule="evenodd" d="M0 0V5.99414H95.9062V0H0Z" fill="#E31D1C"/>
<path fill-rule="evenodd" clip-rule="evenodd" d="M0 10.9892V16.9834H95.9062V10.9892H0Z" fill="#E31D1C"/>
<rect width="59.9414" height="38.9619" fill="#2E42A5"/>
<path fill-rule="evenodd" clip-rule="evenodd" d="M5.16093 8.80742L2.98542 10.3326L3.7199 7.61841L1.78764 5.89836H4.31143L5.15789 3.68332L6.15043 5.89836H8.3019L6.61144 7.61841L7.26589 10.3326L5.16093 8.80742ZM17.1492 8.80742L14.9737 10.3326L15.7081 7.61841L13.7759 5.89836H16.2997L17.1461 3.68332L18.1387 5.89836H20.2901L18.5997 7.61841L19.2541 10.3326L17.1492 8.80742ZM26.9619 10.3326L29.1375 8.80742L31.2424 10.3326L30.588 7.61841L32.2784 5.89836H30.127L29.1344 3.68332L28.288 5.89836H25.7642L27.6964 7.61841L26.9619 10.3326ZM41.1257 8.80742L38.9502 10.3326L39.6847 7.61841L37.7524 5.89836H40.2762L41.1227 3.68332L42.1152 5.89836H44.2667L42.5762 7.61841L43.2307 10.3326L41.1257 8.80742ZM2.98538 22.3209L5.16089 20.7957L7.26585 22.3209L6.61141 19.6067L8.30186 17.8866H6.1504L5.15785 15.6716L4.31139 17.8866H1.7876L3.71986 19.6067L2.98538 22.3209ZM17.1492 20.7957L14.9737 22.3209L15.7081 19.6067L13.7759 17.8866H16.2997L17.1461 15.6716L18.1387 17.8866H20.2901L18.5997 19.6067L19.2541 22.3209L17.1492 20.7957ZM26.9619 22.3209L29.1375 20.7957L31.2424 22.3209L30.588 19.6067L32.2784 17.8866H30.127L29.1344 15.6716L28.288 17.8866H25.7642L27.6964 19.6067L26.9619 22.3209ZM41.1257 20.7957L38.9502 22.3209L39.6847 19.6067L37.7524 17.8866H40.2762L41.1227 15.6716L42.1152 17.8866H44.2667L42.5762 19.6067L43.2307 22.3209L41.1257 20.7957ZM2.98538 34.3091L5.16089 32.784L7.26585 34.3091L6.61141 31.595L8.30186 29.8749H6.1504L5.15785 27.6599L4.31139 29.8749H1.7876L3.71986 31.595L2.98538 34.3091ZM17.1492 32.784L14.9737 34.3091L15.7081 31.595L13.7759 29.8749H16.2997L17.1461 27.6599L18.1387 29.8749H20.2901L18.5997 31.595L19.2541 34.3091L17.1492 32.784ZM26.9619 34.3091L29.1375 32.784L31.2424 34.3091L30.588 31.595L32.2784 29.8749H30.127L29.1344 27.6599L28.288 29.8749H25.7642L27.6964 31.595L26.9619 34.3091ZM41.1257 32.784L38.9502 34.3091L39.6847 31.595L37.7524 29.8749H40.2762L41.1227 27.6599L42.1152 29.8749H44.2667L42.5762 31.595L43.2307 34.3091L41.1257 32.784ZM50.9385 10.3326L53.114 8.80742L55.219 10.3326L54.5645 7.61841L56.255 5.89836H54.1035L53.111 3.68332L52.2645 5.89836H49.7407L51.673 7.61841L50.9385 10.3326ZM53.114 20.7957L50.9385 22.3209L51.673 19.6067L49.7407 17.8866H52.2645L53.111 15.6716L54.1035 17.8866H56.255L54.5645 19.6067L55.219 22.3209L53.114 20.7957ZM50.9385 34.3091L53.114 32.784L55.219 34.3091L54.5645 31.595L56.255 29.8749H54.1035L53.111 27.6599L52.2645 29.8749H49.7407L51.673 31.595L50.9385 34.3091ZM11.155 14.8016L8.97952 16.3267L9.714 13.6126L7.78174 11.8925H10.3055L11.152 9.67746L12.1445 11.8925H14.296L12.6055 13.6126L13.26 16.3267L11.155 14.8016ZM20.9678 16.3267L23.1433 14.8016L25.2483 16.3267L24.5938 13.6126L26.2843 11.8925H24.1328L23.1403 9.67746L22.2938 11.8925H19.77L21.7023 13.6126L20.9678 16.3267ZM35.1316 14.8016L32.9561 16.3267L33.6906 13.6126L31.7583 11.8925H34.2821L35.1286 9.67746L36.1211 11.8925H38.2726L36.5821 13.6126L37.2366 16.3267L35.1316 14.8016ZM8.97952 28.315L11.155 26.7898L13.26 28.315L12.6055 25.6008L14.296 23.8808H12.1445L11.152 21.6657L10.3055 23.8808H7.78174L9.714 25.6008L8.97952 28.315ZM23.1433 26.7898L20.9678 28.315L21.7023 25.6008L19.77 23.8808H22.2938L23.1403 21.6657L24.1328 23.8808H26.2843L24.5938 25.6008L25.2483 28.315L23.1433 26.7898ZM32.9561 28.315L35.1316 26.7898L37.2366 28.315L36.5821 25.6008L38.2726 23.8808H36.1211L35.1286 21.6657L34.2821 23.8808H31.7583L33.6906 25.6008L32.9561 28.315ZM47.1199 14.8016L44.9444 16.3267L45.6788 13.6126L43.7466 11.8925H46.2704L47.1168 9.67746L48.1094 11.8925H50.2608L48.5704 13.6126L49.2248 16.3267L47.1199 14.8016ZM44.9444 28.315L47.1199 26.7898L49.2248 28.315L48.5704 25.6008L50.2608 23.8808H48.1094L47.1168 21.6657L46.2704 23.8808H43.7466L45.6788 25.6008L44.9444 28.315Z" fill="#F7FCFF"/>
</g>
<rect width="95.9062" height="71.9297" fill="url(#paint0_linear_1062_1938)" style="mix-blend-mode:overlay"/>
</g>
<rect x="1.49854" y="1.49854" width="93.0029" height="69.0029" rx="4.50146" stroke="black" stroke-opacity="0.1" stroke-width="2.99707" style="mix-blend-mode:multiply"/>
<defs>
<linearGradient id="paint0_linear_1062_1938" x1="47.9531" y1="0" x2="47.9531" y2="71.9297" gradientUnits="userSpaceOnUse">
<stop stop-color="white" stop-opacity="0.7"/>
<stop offset="1" stop-opacity="0.3"/>
</linearGradient>
<clipPath id="clip0_1062_1938">
<rect width="96" height="72" rx="6" fill="white"/>
</clipPath>
</defs>
</svg>
